<svg width="200" height="200" viewBox="0 0 200 200" fill="none" xmlns="http://www.w3.org/2000/svg">
<path d="M200 100C200 155.228 155.228 200 100 200C44.7715 200 0 155.228 0 100C0 44.7715 44.7715 0 100 0C155.228 0 200 44.7715 200 100ZM10 100C10 149.706 50.2944 190 100 190C149.706 190 190 149.706 190 100C190 50.2944 149.706 10 100 10C50.2944 10 10 50.2944 10 100Z" fill="#353C46"/>
<circle cx="100" cy="100" r="64" stroke="#D4D7EA" stroke-width="24" stroke-dasharray="4 4"/>
<path d="M152 100C152 93.1713 150.655 86.4094 148.042 80.1005C145.428 73.7915 141.598 68.0591 136.77 63.2305C131.941 58.4018 126.208 54.5715 119.9 51.9583C113.591 49.345 106.829 48 100 48C93.1713 48 86.4094 49.345 80.1005 51.9583C73.7915 54.5715 68.0591 58.4018 63.2305 63.2304C58.4018 68.0591 54.5715 73.7915 51.9583 80.1005C49.345 86.4094 48 93.1713 48 100C48 106.829 49.345 113.591 51.9583 119.9C54.5715 126.208 58.4018 131.941 63.2304 136.77C68.0591 141.598 73.7915 145.428 80.1005 148.042C86.4094 150.655 93.1713 152 100 152C106.829 152 113.591 150.655 119.9 148.042C126.208 145.428 131.941 141.598 136.77 136.77C141.598 131.941 145.428 126.208 148.042 119.9C150.655 113.591 152 106.829 152 100L152 100Z" stroke="#D4D7EA" stroke-width="4"/>
<path d="M137 100C137 95.1411 136.043 90.3298 134.184 85.8407C132.324 81.3517 129.599 77.2728 126.163 73.8371C122.727 70.4013 118.648 67.6759 114.159 65.8165C109.67 63.957 104.859 63 100 63C95.1411 63 90.3298 63.957 85.8407 65.8165C81.3517 67.6759 77.2728 70.4013 73.8371 73.837C70.4013 77.2728 67.6759 81.3517 65.8165 85.8407C63.957 90.3298 63 95.1411 63 100C63 104.859 63.957 109.67 65.8165 114.159C67.6759 118.648 70.4013 122.727 73.837 126.163C77.2728 129.599 81.3517 132.324 85.8407 134.184C90.3298 136.043 95.1411 137 100 137C104.859 137 109.67 136.043 114.159 134.184C118.648 132.324 122.727 129.599 126.163 126.163C129.599 122.727 132.324 118.648 134.184 114.159C136.043 109.67 137 104.859 137 100L137 100Z" stroke="#727888" stroke-width="2"/>
<path opacity="0.8" d="M100 0C113.132 1.566e-07 126.136 2.58658 138.268 7.61205C150.401 12.6375 161.425 20.0035 170.711 29.2893C179.997 38.5752 187.362 49.5991 192.388 61.7317C197.413 73.8642 200 86.8678 200 100H190C190 88.181 187.672 76.4778 183.149 65.5585C178.626 54.6392 171.997 44.7177 163.64 36.3604C155.282 28.0031 145.361 21.3738 134.442 16.8508C123.522 12.3279 111.819 10 100 10V0Z" fill="#D4D7EA"/>
</svg>
