<svg width="1140" height="148" viewBox="0 0 1140 148" fill="none" xmlns="http://www.w3.org/2000/svg">
<rect x="222" y="21" width="916" height="92" rx="14" stroke="#F4AD0B" stroke-width="4"/>
<path d="M237 113L1116.5 21.5" stroke="#F4AD0B" stroke-width="4"/>
<path d="M1118 2C1118 0.89543 1117.1 -4.82823e-08 1116 0C1114.9 4.82823e-08 1114 0.895431 1114 2L1118 2ZM1118 113L1118 2L1114 2L1114 113L1118 113Z" fill="#F4AD0B"/>
<path d="M502 2C502 0.89543 501.105 -4.82823e-08 500 0C498.895 4.82823e-08 498 0.895431 498 2L502 2ZM502 113L502 2L498 2L498 113L502 113Z" fill="#F4AD0B"/>
<path d="M798 2C798 0.89543 797.105 -4.82823e-08 796 0C794.895 4.82823e-08 794 0.895431 794 2L798 2ZM798 113L798 2L794 2L794 113L798 113Z" fill="#F4AD0B"/>
<path d="M246 2C246 0.895432 245.105 6.6697e-07 244 0C242.896 -6.66977e-07 242 0.895429 242 2L246 2ZM246 114.5L246 2L242 2L242 114.5L246 114.5Z" fill="#F4AD0B"/>
<path d="M406 115L406 19L402 19L402 115L406 115Z" fill="#F4AD0B"/>
<path d="M542 115L542 19L538 19L538 115L542 115Z" fill="#F4AD0B"/>
<path d="M758 115L758 19L754 19L754 115L758 115Z" fill="#F4AD0B"/>
<path d="M1054 115L1054 19L1050 19L1050 115L1054 115Z" fill="#F4AD0B"/>
<path d="M702 115L702 19L698 19L698 115L702 115Z" fill="#F4AD0B"/>
<path d="M1014 115L1014 19L1010 19L1010 115L1014 115Z" fill="#F4AD0B"/>
<path d="M942 115L942 19L938 19L938 115L942 115Z" fill="#F4AD0B"/>
<path opacity="0.3" d="M260 146L260 2" stroke="#F4AD0B" stroke-width="4" stroke-linecap="round"/>
<path opacity="0.3" d="M340 146L340 2" stroke="#F4AD0B" stroke-width="4" stroke-linecap="round"/>
<path opacity="0.3" d="M476 146L476 2" stroke="#F4AD0B" stroke-width="4" stroke-linecap="round"/>
<path opacity="0.3" d="M636 146L636 2" stroke="#F4AD0B" stroke-width="4" stroke-linecap="round"/>
<path opacity="0.3" d="M876 146L876 2" stroke="#F4AD0B" stroke-width="4" stroke-linecap="round"/>
<path d="M324 82L322 82L324 82ZM324 42L326 42L324 42ZM324 22L322 22L324 22ZM324 92L326 92L324 92ZM324 4L346 4L346 -9.3784e-07L324 2.38101e-08L324 4ZM326 82L326 42L322 42L322 82L326 82ZM326 42L326 22L322 22L322 42L326 42ZM326 22L326 12L322 12L322 22L326 22ZM326 12L326 2L322 2L322 12L326 12ZM324 14L346 14L346 10L324 10L324 14ZM350 10L350 4L346 4L346 10L350 10ZM324 134L346 134L346 130L324 130L324 134ZM326 92L326 82L322 82L322 92L326 92ZM326 112L326 92L322 92L322 112L326 112ZM326 132L326 122L322 122L322 132L326 132ZM326 122L326 112L322 112L322 122L326 122ZM324 124L346 124L346 120L324 120L324 124ZM346 124L346 130L350 130L350 124L346 124ZM324 120L302 120L302 124L324 124L324 120ZM298 124L298 130L302 130L302 124L298 124ZM302 134L324 134L324 130L302 130L302 134ZM324 2.38101e-08L302 3.17863e-08L302 4L324 4L324 2.38101e-08ZM298 4L298 10L302 10L302 4L298 4ZM302 14L324 14L324 10L302 10L302 14ZM298 10C298 12.2091 299.791 14 302 14L302 10L302 10L298 10ZM302 3.17863e-08C299.791 9.14155e-09 298 1.79086 298 4L302 4L302 4L302 3.17863e-08ZM298 130C298 132.209 299.791 134 302 134L302 130L298 130ZM346 4L350 4C350 1.79086 348.209 -1.0344e-06 346 -9.3784e-07L346 4ZM302 120C299.791 120 298 121.791 298 124L302 124L302 124L302 120ZM346 134C348.209 134 350 132.209 350 130L346 130L346 130L346 134ZM346 124L346 124L350 124C350 121.791 348.209 120 346 120L346 124ZM346 14C348.209 14 350 12.2091 350 10L346 10L346 14Z" fill="#DC143C"/>
<path fill-rule="evenodd" clip-rule="evenodd" d="M20 133C20 135.209 18.2091 137 16 137L4 137C1.79086 137 -4.18497e-07 135.209 -3.21932e-07 133L1.77621e-06 85C1.84864e-06 83.3431 1.34315 82 3 82C4.65686 82 6 83.3431 6 85L6 127C6 129.209 7.79086 131 10 131L12 131C14.2091 131 16 129.209 16 127L16 100C16 98.8954 16.8954 98 18 98C19.1046 98 20 98.8954 20 100L20 133Z" fill="#F4AD0B"/>
<path fill-rule="evenodd" clip-rule="evenodd" d="M20 23C20 20.7909 18.2091 19 16 19L4 19C1.79086 19 -4.18497e-07 20.7909 -3.21932e-07 23L1.77621e-06 71C1.84864e-06 72.6569 1.34315 74 3 74C4.65686 74 6 72.6569 6 71L6 29C6 26.7909 7.79086 25 10 25L12 25C14.2091 25 16 26.7909 16 29L16 56C16 57.1046 16.8954 58 18 58C19.1046 58 20 57.1046 20 56L20 23Z" fill="#F4AD0B"/>
<g filter="url(#filter0_d_1286_600)">
<circle cx="120" cy="79" r="25" stroke="#507381" stroke-width="6"/>
</g>
<g filter="url(#filter1_d_1286_600)">
<path fill-rule="evenodd" clip-rule="evenodd" d="M119.889 19C118.846 19 118.026 19.8747 118.058 20.9176L118.324 29.5058C118.35 30.344 119.05 31 119.889 31C120.728 31 121.428 30.344 121.454 29.5058L121.72 20.9176C121.752 19.8747 120.932 19 119.889 19Z" fill="#DC143C"/>
</g>
<defs>
<filter id="filter0_d_1286_600" x="76" y="35" width="88" height="88" filterUnits="userSpaceOnUse" color-interpolation-filters="sRGB">
<feFlood flood-opacity="0" result="BackgroundImageFix"/>
<feColorMatrix in="SourceAlpha" type="matrix" values="0 0 0 0 0 0 0 0 0 0 0 0 0 0 0 0 0 0 127 0" result="hardAlpha"/>
<feMorphology radius="4" operator="dilate" in="SourceAlpha" result="effect1_dropShadow_1286_600"/>
<feOffset/>
<feGaussianBlur stdDeviation="6"/>
<feColorMatrix type="matrix" values="0 0 0 0 0.0117647 0 0 0 0 0.239216 0 0 0 0 0.866667 0 0 0 1 0"/>
<feBlend mode="normal" in2="BackgroundImageFix" result="effect1_dropShadow_1286_600"/>
<feBlend mode="normal" in="SourceGraphic" in2="effect1_dropShadow_1286_600" result="shape"/>
</filter>
<filter id="filter1_d_1286_600" x="110.057" y="11" width="19.6633" height="28" filterUnits="userSpaceOnUse" color-interpolation-filters="sRGB">
<feFlood flood-opacity="0" result="BackgroundImageFix"/>
<feColorMatrix in="SourceAlpha" type="matrix" values="0 0 0 0 0 0 0 0 0 0 0 0 0 0 0 0 0 0 127 0" result="hardAlpha"/>
<feOffset/>
<feGaussianBlur stdDeviation="4"/>
<feColorMatrix type="matrix" values="0 0 0 0 0 0 0 0 0 1 0 0 0 0 0.845361 0 0 0 1 0"/>
<feBlend mode="normal" in2="BackgroundImageFix" result="effect1_dropShadow_1286_600"/>
<feBlend mode="normal" in="SourceGraphic" in2="effect1_dropShadow_1286_600" result="shape"/>
</filter>
</defs>
</svg>
