<svg width="1888" height="1048" viewBox="0 0 1888 1048" fill="none" xmlns="http://www.w3.org/2000/svg">
<g filter="url(#filter0_d_1289_599)">
<path d="M16 32C16 23.1634 23.1634 16 32 16H139.317C144.733 16 149.781 18.7395 152.732 23.2802L169.268 48.7198C172.219 53.2605 177.267 56 182.683 56H264H480H712H828H909.317C914.733 56 919.781 53.2605 922.732 48.7198L939.268 23.2802C942.219 18.7395 947.267 16 952.683 16H1856C1864.84 16 1872 23.1634 1872 32V270V397V432.911C1872 439.825 1867.56 445.957 1860.99 448.113L1835.01 456.637C1828.44 458.793 1824 464.925 1824 471.839V524V584.161C1824 591.075 1828.44 597.207 1835.01 599.363L1860.99 607.887C1867.56 610.043 1872 616.175 1872 623.089V651V778V1016C1872 1024.84 1864.84 1032 1856 1032H952.683C947.267 1032 942.219 1029.26 939.268 1024.72L922.732 999.28C919.781 994.74 914.733 992 909.317 992H828H712H480H264H190.683C185.267 992 180.219 994.74 177.268 999.28L160.732 1024.72C157.781 1029.26 152.733 1032 147.317 1032H32C23.1634 1032 16 1024.84 16 1016V749.401C16 745.897 17.1499 742.491 19.2731 739.704L36.7269 716.796C38.8501 714.009 40 710.603 40 707.099V404.901C40 401.397 38.8501 397.991 36.7269 395.204L19.2731 372.296C17.1499 369.509 16 366.103 16 362.599V32Z" stroke="#F4AD0B" stroke-width="8" shape-rendering="crispEdges"/>
</g>
<mask id="path-2-inside-1_1289_599" fill="white">
<rect x="631" y="76" width="16" height="16" rx="2"/>
</mask>
<rect x="631" y="76" width="16" height="16" rx="2" stroke="#F4AD0B" stroke-width="8" mask="url(#path-2-inside-1_1289_599)"/>
<mask id="path-3-inside-2_1289_599" fill="white">
<rect x="655" y="76" width="40" height="16" rx="2"/>
</mask>
<rect x="655" y="76" width="40" height="16" rx="2" fill="#F4AD0B" stroke="#F4AD0B" stroke-width="8" mask="url(#path-3-inside-2_1289_599)"/>
<mask id="path-4-inside-3_1289_599" fill="white">
<rect x="599" y="76" width="24" height="16" rx="2"/>
</mask>
<rect x="599" y="76" width="24" height="16" rx="2" fill="#F4AD0B" stroke="#F4AD0B" stroke-width="8" mask="url(#path-4-inside-3_1289_599)"/>
<mask id="path-5-inside-4_1289_599" fill="white">
<rect x="631" y="956" width="16" height="16" rx="2"/>
</mask>
<rect x="631" y="956" width="16" height="16" rx="2" stroke="#F4AD0B" stroke-width="8" mask="url(#path-5-inside-4_1289_599)"/>
<mask id="path-6-inside-5_1289_599" fill="white">
<rect x="655" y="956" width="40" height="16" rx="2"/>
</mask>
<rect x="655" y="956" width="40" height="16" rx="2" fill="#F4AD0B" stroke="#F4AD0B" stroke-width="8" mask="url(#path-6-inside-5_1289_599)"/>
<mask id="path-7-inside-6_1289_599" fill="white">
<rect x="607" y="956" width="16" height="16" rx="2"/>
</mask>
<rect x="607" y="956" width="16" height="16" rx="2" fill="#F4AD0B" stroke="#F4AD0B" stroke-width="8" mask="url(#path-7-inside-6_1289_599)"/>
<path d="M146.328 721.288V733.012H143.208L135.648 728.056L137.052 725.86L143.952 730.336V721.288H146.328ZM159.514 721.336L163.486 730.612L161.902 733H149.098L147.454 730.576L151.282 721.336H159.514ZM150.238 730.444H160.69L157.978 724.024H152.926L150.238 730.444ZM181.062 721.3L181.026 721.504L174.75 733H164.526V721.3H166.722V730.3H173.454L176.814 723.796V723.724H171.198V724.432H168.966V721.3H181.062ZM185.492 730.744L185.78 730.72L190.688 721.336H193.772L200.3 733H197.276L192.26 723.784L187.388 733H184.388L184.208 732.988L183.908 732.556L183.632 732.088L183.26 731.44L182.936 730.696L182.624 729.916L182.444 729.016L182.252 727.996L182.18 726.94L182.252 725.884L182.348 724.924L182.54 723.988L182.744 723.28L183.068 722.632L183.38 722.068L183.752 721.6L183.968 721.36H186.188L185.804 721.732L185.492 722.188L185.18 722.752L184.94 723.304L184.724 723.988L184.532 724.888L184.376 725.884L184.316 726.88L184.376 727.876L184.568 728.932L184.808 729.736L185.06 730.228L185.492 730.744ZM221.899 721.384V733.012H207.751L207.151 732.412V729.196H210.259V730.3H219.211V726.28H213.643L211.867 728.092H207.811L212.275 723.628H219.211V721.384H221.899Z" fill="#F4AD0B"/>
<g filter="url(#filter1_f_1289_599)">
<path d="M146.328 721.288V733.012H143.208L135.648 728.056L137.052 725.86L143.952 730.336V721.288H146.328ZM159.514 721.336L163.486 730.612L161.902 733H149.098L147.454 730.576L151.282 721.336H159.514ZM150.238 730.444H160.69L157.978 724.024H152.926L150.238 730.444ZM181.062 721.3L181.026 721.504L174.75 733H164.526V721.3H166.722V730.3H173.454L176.814 723.796V723.724H171.198V724.432H168.966V721.3H181.062ZM185.492 730.744L185.78 730.72L190.688 721.336H193.772L200.3 733H197.276L192.26 723.784L187.388 733H184.388L184.208 732.988L183.908 732.556L183.632 732.088L183.26 731.44L182.936 730.696L182.624 729.916L182.444 729.016L182.252 727.996L182.18 726.94L182.252 725.884L182.348 724.924L182.54 723.988L182.744 723.28L183.068 722.632L183.38 722.068L183.752 721.6L183.968 721.36H186.188L185.804 721.732L185.492 722.188L185.18 722.752L184.94 723.304L184.724 723.988L184.532 724.888L184.376 725.884L184.316 726.88L184.376 727.876L184.568 728.932L184.808 729.736L185.06 730.228L185.492 730.744ZM221.899 721.384V733.012H207.751L207.151 732.412V729.196H210.259V730.3H219.211V726.28H213.643L211.867 728.092H207.811L212.275 723.628H219.211V721.384H221.899Z" fill="#F4AD0B"/>
</g>
<path d="M48.432 882.336L52.404 891.612L50.82 894H38.016L36.372 891.576L40.2 882.336H48.432ZM39.156 891.444H49.608L46.896 885.024H41.844L39.156 891.444ZM56.4683 891.744L56.7563 891.72L61.6643 882.336H64.7483L71.2763 894H68.2523L63.2363 884.784L58.3643 894H55.3643L55.1843 893.988L54.8843 893.556L54.6083 893.088L54.2363 892.44L53.9123 891.696L53.6003 890.916L53.4203 890.016L53.2283 888.996L53.1563 887.94L53.2283 886.884L53.3243 885.924L53.5163 884.988L53.7203 884.28L54.0443 883.632L54.3563 883.068L54.7283 882.6L54.9443 882.36H57.1643L56.7803 882.732L56.4683 883.188L56.1563 883.752L55.9163 884.304L55.7003 884.988L55.5083 885.888L55.3523 886.884L55.2923 887.88L55.3523 888.876L55.5443 889.932L55.7843 890.736L56.0363 891.228L56.4683 891.744ZM89.3967 882.324V885.012H87.6087V894H85.1847V885.012H84.8487L80.5767 894H77.4687L71.8647 882.324H74.8767L79.0527 890.676L83.0967 882.324H89.3967ZM96.3405 882.336H99.0525V884.628H106.385L110.129 882.336H115.577L106.385 887.328H96.3405V882.336ZM96.3405 889.008H106.685L115.697 894H110.597L106.181 891.708H99.0165V894H96.3405V889.008Z" fill="#F4AD0B"/>
<g filter="url(#filter2_f_1289_599)">
<path d="M48.432 882.336L52.404 891.612L50.82 894H38.016L36.372 891.576L40.2 882.336H48.432ZM39.156 891.444H49.608L46.896 885.024H41.844L39.156 891.444ZM56.4683 891.744L56.7563 891.72L61.6643 882.336H64.7483L71.2763 894H68.2523L63.2363 884.784L58.3643 894H55.3643L55.1843 893.988L54.8843 893.556L54.6083 893.088L54.2363 892.44L53.9123 891.696L53.6003 890.916L53.4203 890.016L53.2283 888.996L53.1563 887.94L53.2283 886.884L53.3243 885.924L53.5163 884.988L53.7203 884.28L54.0443 883.632L54.3563 883.068L54.7283 882.6L54.9443 882.36H57.1643L56.7803 882.732L56.4683 883.188L56.1563 883.752L55.9163 884.304L55.7003 884.988L55.5083 885.888L55.3523 886.884L55.2923 887.88L55.3523 888.876L55.5443 889.932L55.7843 890.736L56.0363 891.228L56.4683 891.744ZM89.3967 882.324V885.012H87.6087V894H85.1847V885.012H84.8487L80.5767 894H77.4687L71.8647 882.324H74.8767L79.0527 890.676L83.0967 882.324H89.3967ZM96.3405 882.336H99.0525V884.628H106.385L110.129 882.336H115.577L106.385 887.328H96.3405V882.336ZM96.3405 889.008H106.685L115.697 894H110.597L106.181 891.708H99.0165V894H96.3405V889.008Z" fill="#F4AD0B"/>
</g>
<path d="M46.656 905.336V914.78H47.424L51.396 910.748H54.888L48.6 917H42.492L36.144 910.712H39.66L43.668 914.744H44.4V905.336H46.656ZM72.4131 905.504L72.5091 905.696L72.5811 906.128V916.28L72.5211 916.652L72.4251 916.856L72.1851 916.928L71.7291 917H56.4291L55.9491 916.952L55.7091 916.82L55.6131 916.58L55.5411 916.22V906.128L55.6011 905.768L55.6971 905.504L55.9371 905.384L56.3931 905.36H71.7291L72.2091 905.42L72.4131 905.504ZM70.2651 914.18V908.024H58.1811V914.18H70.2651ZM85.3461 905.336L89.3181 914.612L87.7341 917H74.9301L73.2861 914.576L77.1141 905.336H85.3461ZM76.0701 914.444H86.5221L83.8101 908.024H78.7581L76.0701 914.444ZM99.333 905.42H110.733L114.081 909.2V909.812H111.129L109.785 908.024H100.329L98.925 909.812H95.985V909.2L99.333 905.42ZM101.385 909.776H108.981V912.56H101.385V909.776ZM95.949 912.884H98.901L100.281 914.432H109.761L111.117 912.908H114.057V913.448L110.709 917.012H99.297L95.949 913.448V912.884Z" fill="#F4AD0B"/>
<g filter="url(#filter3_f_1289_599)">
<path d="M46.656 905.336V914.78H47.424L51.396 910.748H54.888L48.6 917H42.492L36.144 910.712H39.66L43.668 914.744H44.4V905.336H46.656ZM72.4131 905.504L72.5091 905.696L72.5811 906.128V916.28L72.5211 916.652L72.4251 916.856L72.1851 916.928L71.7291 917H56.4291L55.9491 916.952L55.7091 916.82L55.6131 916.58L55.5411 916.22V906.128L55.6011 905.768L55.6971 905.504L55.9371 905.384L56.3931 905.36H71.7291L72.2091 905.42L72.4131 905.504ZM70.2651 914.18V908.024H58.1811V914.18H70.2651ZM85.3461 905.336L89.3181 914.612L87.7341 917H74.9301L73.2861 914.576L77.1141 905.336H85.3461ZM76.0701 914.444H86.5221L83.8101 908.024H78.7581L76.0701 914.444ZM99.333 905.42H110.733L114.081 909.2V909.812H111.129L109.785 908.024H100.329L98.925 909.812H95.985V909.2L99.333 905.42ZM101.385 909.776H108.981V912.56H101.385V909.776ZM95.949 912.884H98.901L100.281 914.432H109.761L111.117 912.908H114.057V913.448L110.709 917.012H99.297L95.949 913.448V912.884Z" fill="#F4AD0B"/>
</g>
<path d="M54.468 944.3V946.988H36.3V944.3H54.468ZM39.42 948.788H51.348V951.476H39.42V948.788ZM36.3 953.3H54.468V956H36.3V953.3ZM70.1438 944.336L60.3518 956H56.9558L64.1558 947.36V947.156H55.5158L57.6278 944.336H70.1438ZM88.2248 944.324V947.012H86.4368V956H84.0128V947.012H83.6768L79.4048 956H76.2968L70.6928 944.324H73.7048L77.8808 952.676L81.9248 944.324H88.2248ZM95.0966 944.408H97.7966V952.424H95.0966V944.408ZM98.6606 947.984H101.325V952.424H98.6606V947.984ZM102.189 947.984H104.889V956H102.189V947.984Z" fill="#F4AD0B"/>
<g filter="url(#filter4_f_1289_599)">
<path d="M54.468 944.3V946.988H36.3V944.3H54.468ZM39.42 948.788H51.348V951.476H39.42V948.788ZM36.3 953.3H54.468V956H36.3V953.3ZM70.1438 944.336L60.3518 956H56.9558L64.1558 947.36V947.156H55.5158L57.6278 944.336H70.1438ZM88.2248 944.324V947.012H86.4368V956H84.0128V947.012H83.6768L79.4048 956H76.2968L70.6928 944.324H73.7048L77.8808 952.676L81.9248 944.324H88.2248ZM95.0966 944.408H97.7966V952.424H95.0966V944.408ZM98.6606 947.984H101.325V952.424H98.6606V947.984ZM102.189 947.984H104.889V956H102.189V947.984Z" fill="#F4AD0B"/>
</g>
<mask id="path-16-inside-7_1289_599" fill="white">
<rect x="36" y="784" width="16" height="16" rx="2"/>
</mask>
<rect x="36" y="784" width="16" height="16" rx="2" stroke="#7E8494" stroke-width="8" mask="url(#path-16-inside-7_1289_599)"/>
<path d="M38 814H50V826H38V814Z" stroke="#7E8494" stroke-width="4"/>
<mask id="path-18-inside-8_1289_599" fill="white">
<rect x="36" y="756" width="16" height="16" rx="2"/>
</mask>
<rect x="36" y="756" width="16" height="16" rx="2" fill="#7E8494" stroke="#7E8494" stroke-width="8" mask="url(#path-18-inside-8_1289_599)"/>
<mask id="path-19-inside-9_1289_599" fill="white">
<rect x="36" y="840" width="16" height="16" rx="2"/>
</mask>
<rect x="36" y="840" width="16" height="16" rx="2" fill="#7E8494" stroke="#7E8494" stroke-width="8" mask="url(#path-19-inside-9_1289_599)"/>
<mask id="path-20-inside-10_1289_599" fill="white">
<rect x="68" y="756" width="16" height="16" rx="2"/>
</mask>
<rect x="68" y="756" width="16" height="16" rx="2" stroke="#7E8494" stroke-width="8" mask="url(#path-20-inside-10_1289_599)"/>
<mask id="path-21-inside-11_1289_599" fill="white">
<rect x="68" y="840" width="16" height="16" rx="2"/>
</mask>
<rect x="68" y="840" width="16" height="16" rx="2" stroke="#7E8494" stroke-width="8" mask="url(#path-21-inside-11_1289_599)"/>
<mask id="path-22-inside-12_1289_599" fill="white">
<rect x="68" y="784" width="16" height="16" rx="2"/>
</mask>
<rect x="68" y="784" width="16" height="16" rx="2" fill="#7E8494" stroke="#7E8494" stroke-width="8" mask="url(#path-22-inside-12_1289_599)"/>
<mask id="path-23-inside-13_1289_599" fill="white">
<rect x="68" y="812" width="16" height="16" rx="2"/>
</mask>
<rect x="68" y="812" width="16" height="16" rx="2" fill="#7E8494" stroke="#7E8494" stroke-width="8" mask="url(#path-23-inside-13_1289_599)"/>
<mask id="path-24-inside-14_1289_599" fill="white">
<rect x="96" y="756" width="16" height="16" rx="2"/>
</mask>
<rect x="96" y="756" width="16" height="16" rx="2" stroke="#7E8494" stroke-width="8" mask="url(#path-24-inside-14_1289_599)"/>
<mask id="path-25-inside-15_1289_599" fill="white">
<rect x="96" y="784" width="16" height="16" rx="2"/>
</mask>
<rect x="96" y="784" width="16" height="16" rx="2" stroke="#7E8494" stroke-width="8" mask="url(#path-25-inside-15_1289_599)"/>
<mask id="path-26-inside-16_1289_599" fill="white">
<rect x="96" y="840" width="16" height="16" rx="2"/>
</mask>
<rect x="96" y="840" width="16" height="16" rx="2" stroke="#7E8494" stroke-width="8" mask="url(#path-26-inside-16_1289_599)"/>
<mask id="path-27-inside-17_1289_599" fill="white">
<rect x="96" y="812" width="16" height="16" rx="2"/>
</mask>
<rect x="96" y="812" width="16" height="16" rx="2" fill="#7E8494" stroke="#7E8494" stroke-width="8" mask="url(#path-27-inside-17_1289_599)"/>
<path fill-rule="evenodd" clip-rule="evenodd" d="M181.02 756.553C179.772 755.823 178.228 755.823 176.98 756.553L137.98 779.372C136.754 780.089 136 781.403 136 782.824V828.553C136 829.974 136.754 831.288 137.98 832.006L176.98 854.824C178.228 855.554 179.772 855.554 181.02 854.824L220.02 832.006C221.246 831.288 222 829.974 222 828.553V782.824C222 781.403 221.246 780.089 220.02 779.372L181.02 756.553ZM181.02 790.769C179.772 790.039 178.228 790.039 176.98 790.769L167.22 796.479C165.994 797.197 165.24 798.511 165.24 799.932V811.445C165.24 812.866 165.994 814.18 167.22 814.898L176.98 820.608C178.228 821.338 179.772 821.338 181.02 820.608L190.78 814.898C192.006 814.18 192.76 812.866 192.76 811.445V799.932C192.76 798.511 192.006 797.197 190.78 796.479L181.02 790.769Z" fill="#F83320" fill-opacity="0.6"/>
<g filter="url(#filter5_f_1289_599)">
<path d="M190.605 773.101C190.605 779.803 185.251 785.19 178.702 785.19C172.153 785.19 166.799 779.803 166.799 773.101C166.799 766.4 172.153 761.013 178.702 761.013C185.251 761.013 190.605 766.4 190.605 773.101Z" stroke="#F4AD0B" stroke-width="4"/>
</g>
<g filter="url(#filter6_f_1289_599)">
<path d="M190.604 837.508C190.604 830.806 185.25 825.419 178.701 825.419C172.153 825.419 166.799 830.806 166.799 837.508C166.799 844.21 172.153 849.597 178.701 849.597C185.25 849.597 190.604 844.21 190.604 837.508Z" stroke="#F4AD0B" stroke-width="4"/>
</g>
<g filter="url(#filter7_f_1289_599)">
<path d="M204.507 780.146C204.507 786.848 199.153 792.235 192.605 792.235C186.056 792.235 180.702 786.848 180.702 780.146C180.702 773.445 186.056 768.058 192.605 768.058C199.153 768.058 204.507 773.445 204.507 780.146Z" stroke="#F4AD0B" stroke-width="4"/>
</g>
<g filter="url(#filter8_f_1289_599)">
<path d="M204.507 830.463C204.507 823.761 199.153 818.374 192.605 818.374C186.056 818.374 180.702 823.761 180.702 830.463C180.702 837.165 186.056 842.552 192.605 842.552C199.153 842.552 204.507 837.165 204.507 830.463Z" stroke="#F4AD0B" stroke-width="4"/>
</g>
<g filter="url(#filter9_f_1289_599)">
<path d="M152.897 780.146C152.897 786.848 158.251 792.235 164.8 792.235C171.348 792.235 176.702 786.848 176.702 780.146C176.702 773.445 171.348 768.058 164.8 768.058C158.251 768.058 152.897 773.445 152.897 780.146Z" stroke="#F4AD0B" stroke-width="4"/>
</g>
<g filter="url(#filter10_f_1289_599)">
<path d="M152.897 830.463C152.897 823.761 158.251 818.374 164.8 818.374C171.348 818.374 176.702 823.761 176.702 830.463C176.702 837.165 171.348 842.552 164.8 842.552C158.251 842.552 152.897 837.165 152.897 830.463Z" stroke="#F4AD0B" stroke-width="4"/>
</g>
<g filter="url(#filter11_f_1289_599)">
<path d="M217.417 789.203C217.417 795.905 212.063 801.292 205.514 801.292C198.965 801.292 193.611 795.905 193.611 789.203C193.611 782.501 198.965 777.114 205.514 777.114C212.063 777.114 217.417 782.501 217.417 789.203Z" stroke="#F4AD0B" stroke-width="4"/>
</g>
<g filter="url(#filter12_f_1289_599)">
<path d="M217.417 821.406C217.417 814.705 212.063 809.318 205.514 809.318C198.965 809.318 193.611 814.705 193.611 821.406C193.611 828.108 198.965 833.495 205.514 833.495C212.063 833.495 217.417 828.108 217.417 821.406Z" stroke="#F4AD0B" stroke-width="4"/>
</g>
<g filter="url(#filter13_f_1289_599)">
<path d="M139.987 789.203C139.987 795.905 145.341 801.292 151.889 801.292C158.438 801.292 163.792 795.905 163.792 789.203C163.792 782.501 158.438 777.114 151.889 777.114C145.341 777.114 139.987 782.501 139.987 789.203Z" stroke="#F4AD0B" stroke-width="4"/>
</g>
<g filter="url(#filter14_f_1289_599)">
<path d="M139.987 821.406C139.987 814.705 145.341 809.318 151.889 809.318C158.438 809.318 163.792 814.705 163.792 821.406C163.792 828.108 158.438 833.495 151.889 833.495C145.341 833.495 139.987 828.108 139.987 821.406Z" stroke="#F4AD0B" stroke-width="4"/>
</g>
<g filter="url(#filter15_f_1289_599)">
<path d="M219.403 805.305C219.403 812.006 214.049 817.393 207.5 817.393C200.952 817.393 195.598 812.006 195.598 805.305C195.598 798.603 200.952 793.216 207.5 793.216C214.049 793.216 219.403 798.603 219.403 805.305Z" stroke="#F4AD0B" stroke-width="4"/>
</g>
<g filter="url(#filter16_f_1289_599)">
<path d="M138.001 805.305C138.001 812.006 143.355 817.393 149.904 817.393C156.453 817.393 161.807 812.006 161.807 805.305C161.807 798.603 156.453 793.216 149.904 793.216C143.355 793.216 138.001 798.603 138.001 805.305Z" stroke="#F4AD0B" stroke-width="4"/>
</g>
<g style="mix-blend-mode:lighten" filter="url(#filter17_f_1289_599)">
<path fill-rule="evenodd" clip-rule="evenodd" d="M180.01 756.274C179.386 755.909 178.614 755.909 177.99 756.274L136.99 780.262C136.377 780.621 136 781.278 136 781.988V830.012C136 830.722 136.377 831.379 136.99 831.738L177.99 855.726C178.614 856.091 179.386 856.091 180.01 855.726L221.01 831.738C221.623 831.379 222 830.722 222 830.012V781.988C222 781.278 221.623 780.621 221.01 780.262L180.01 756.274ZM180.01 790.489C179.386 790.124 178.614 790.124 177.99 790.489L166.23 797.37C165.617 797.729 165.24 798.386 165.24 799.096V812.904C165.24 813.614 165.617 814.271 166.23 814.63L177.99 821.51C178.614 821.875 179.386 821.875 180.01 821.51L191.77 814.63C192.383 814.271 192.76 813.614 192.76 812.904V799.096C192.76 798.386 192.383 797.729 191.77 797.37L180.01 790.489Z" fill="#F83320"/>
</g>
<mask id="mask0_1289_599" style="mask-type:alpha" maskUnits="userSpaceOnUse" x="136" y="756" width="86" height="100">
<path fill-rule="evenodd" clip-rule="evenodd" d="M181.02 756.553C179.772 755.823 178.228 755.823 176.98 756.553L137.98 779.372C136.754 780.089 136 781.403 136 782.824V828.553C136 829.974 136.754 831.288 137.98 832.006L176.98 854.824C178.228 855.554 179.772 855.554 181.02 854.824L220.02 832.006C221.246 831.288 222 829.974 222 828.553V782.824C222 781.403 221.246 780.089 220.02 779.372L181.02 756.553ZM181.02 790.769C179.772 790.039 178.228 790.039 176.98 790.769L167.22 796.479C165.994 797.197 165.24 798.511 165.24 799.932V811.445C165.24 812.866 165.994 814.18 167.22 814.898L176.98 820.608C178.228 821.338 179.772 821.338 181.02 820.608L190.78 814.898C192.006 814.18 192.76 812.866 192.76 811.445V799.932C192.76 798.511 192.006 797.197 190.78 796.479L181.02 790.769Z" fill="#F83320" fill-opacity="0.6"/>
</mask>
<g mask="url(#mask0_1289_599)">
<g style="mix-blend-mode:overlay" filter="url(#filter18_f_1289_599)">
<rect x="136.001" y="755.994" width="98.3112" height="1.00623" fill="black"/>
</g>
<g style="mix-blend-mode:overlay" filter="url(#filter19_f_1289_599)">
<rect x="136.001" y="855.622" width="98.3112" height="1.00623" fill="black"/>
</g>
<g style="mix-blend-mode:overlay" filter="url(#filter20_f_1289_599)">
<rect x="136.001" y="759.013" width="98.3112" height="1.00623" fill="black"/>
</g>
<g style="mix-blend-mode:overlay" filter="url(#filter21_f_1289_599)">
<rect x="136.001" y="762.031" width="98.3112" height="1.00623" fill="black"/>
</g>
<g style="mix-blend-mode:overlay" filter="url(#filter22_f_1289_599)">
<rect x="136.001" y="765.051" width="98.3112" height="1.00623" fill="black"/>
</g>
<g style="mix-blend-mode:overlay" filter="url(#filter23_f_1289_599)">
<rect x="136.001" y="768.07" width="98.3112" height="1.00623" fill="black"/>
</g>
<g style="mix-blend-mode:overlay" filter="url(#filter24_f_1289_599)">
<rect x="136.001" y="771.089" width="98.3112" height="1.00623" fill="black"/>
</g>
<g style="mix-blend-mode:overlay" filter="url(#filter25_f_1289_599)">
<rect x="136.001" y="774.108" width="98.3112" height="1.00623" fill="black"/>
</g>
<g style="mix-blend-mode:overlay" filter="url(#filter26_f_1289_599)">
<rect x="136.001" y="777.127" width="98.3112" height="1.00623" fill="black"/>
</g>
<g style="mix-blend-mode:overlay" filter="url(#filter27_f_1289_599)">
<rect x="136.001" y="780.146" width="98.3112" height="1.00623" fill="black"/>
</g>
<g style="mix-blend-mode:overlay" filter="url(#filter28_f_1289_599)">
<rect x="136.001" y="783.165" width="98.3112" height="1.00623" fill="black"/>
</g>
<g style="mix-blend-mode:overlay" filter="url(#filter29_f_1289_599)">
<rect x="136.001" y="786.185" width="98.3112" height="1.00623" fill="black"/>
</g>
<g style="mix-blend-mode:overlay" filter="url(#filter30_f_1289_599)">
<rect x="136.001" y="789.203" width="98.3112" height="1.00623" fill="black"/>
</g>
<g style="mix-blend-mode:overlay" filter="url(#filter31_f_1289_599)">
<rect x="136.001" y="792.223" width="98.3112" height="1.00623" fill="black"/>
</g>
<g style="mix-blend-mode:overlay" filter="url(#filter32_f_1289_599)">
<rect x="136.001" y="795.241" width="98.3112" height="1.00623" fill="black"/>
</g>
<g style="mix-blend-mode:overlay" filter="url(#filter33_f_1289_599)">
<rect x="136.001" y="798.261" width="98.3112" height="1.00623" fill="black"/>
</g>
<g style="mix-blend-mode:overlay" filter="url(#filter34_f_1289_599)">
<rect x="136.001" y="801.279" width="98.3112" height="1.00623" fill="black"/>
</g>
<g style="mix-blend-mode:overlay" filter="url(#filter35_f_1289_599)">
<rect x="136.001" y="804.299" width="98.3112" height="1.00623" fill="black"/>
</g>
<g style="mix-blend-mode:overlay" filter="url(#filter36_f_1289_599)">
<rect x="136.001" y="807.317" width="98.3112" height="1.00623" fill="black"/>
</g>
<g style="mix-blend-mode:overlay" filter="url(#filter37_f_1289_599)">
<rect x="136.001" y="810.337" width="98.3112" height="1.00623" fill="black"/>
</g>
<g style="mix-blend-mode:overlay" filter="url(#filter38_f_1289_599)">
<rect x="136.001" y="813.355" width="98.3112" height="1.00623" fill="black"/>
</g>
<g style="mix-blend-mode:overlay" filter="url(#filter39_f_1289_599)">
<rect x="136.001" y="816.375" width="98.3112" height="1.00623" fill="black"/>
</g>
<g style="mix-blend-mode:overlay" filter="url(#filter40_f_1289_599)">
<rect x="136.001" y="819.394" width="98.3112" height="1.00623" fill="black"/>
</g>
<g style="mix-blend-mode:overlay" filter="url(#filter41_f_1289_599)">
<rect x="136.001" y="822.413" width="98.3112" height="1.00623" fill="black"/>
</g>
<g style="mix-blend-mode:overlay" filter="url(#filter42_f_1289_599)">
<rect x="136.001" y="825.432" width="98.3112" height="1.00623" fill="black"/>
</g>
<g style="mix-blend-mode:overlay" filter="url(#filter43_f_1289_599)">
<rect x="136.001" y="828.451" width="98.3112" height="1.00623" fill="black"/>
</g>
<g style="mix-blend-mode:overlay" filter="url(#filter44_f_1289_599)">
<rect x="136.001" y="831.47" width="98.3112" height="1.00623" fill="black"/>
</g>
<g style="mix-blend-mode:overlay" filter="url(#filter45_f_1289_599)">
<rect x="136.001" y="834.489" width="98.3112" height="1.00623" fill="black"/>
</g>
<g style="mix-blend-mode:overlay" filter="url(#filter46_f_1289_599)">
<rect x="136.001" y="837.508" width="98.3112" height="1.00623" fill="black"/>
</g>
<g style="mix-blend-mode:overlay" filter="url(#filter47_f_1289_599)">
<rect x="136.001" y="840.527" width="98.3112" height="1.00623" fill="black"/>
</g>
<g style="mix-blend-mode:overlay" filter="url(#filter48_f_1289_599)">
<rect x="136.001" y="843.546" width="98.3112" height="1.00623" fill="black"/>
</g>
<g style="mix-blend-mode:overlay" filter="url(#filter49_f_1289_599)">
<rect x="136.001" y="846.565" width="98.3112" height="1.00623" fill="black"/>
</g>
<g style="mix-blend-mode:overlay" filter="url(#filter50_f_1289_599)">
<rect x="136.001" y="849.584" width="98.3112" height="1.00623" fill="black"/>
</g>
<g style="mix-blend-mode:overlay" filter="url(#filter51_f_1289_599)">
<rect x="136.001" y="852.604" width="98.3112" height="1.00623" fill="black"/>
</g>
</g>
<mask id="path-77-inside-18_1289_599" fill="white">
<rect width="16" height="48" rx="2" transform="matrix(-1 0 0 1 189 880)"/>
</mask>
<rect width="16" height="48" rx="2" transform="matrix(-1 0 0 1 189 880)" stroke="#7E8494" stroke-width="8" mask="url(#path-77-inside-18_1289_599)"/>
<mask id="path-78-inside-19_1289_599" fill="white">
<rect width="16" height="32" rx="2" transform="matrix(-1 0 0 1 189 940)"/>
</mask>
<rect width="16" height="32" rx="2" transform="matrix(-1 0 0 1 189 940)" stroke="#7E8494" stroke-width="8" mask="url(#path-78-inside-19_1289_599)"/>
<mask id="path-79-inside-20_1289_599" fill="white">
<rect width="16" height="92" rx="2" transform="matrix(-1 0 0 1 217 880)"/>
</mask>
<rect width="16" height="92" rx="2" transform="matrix(-1 0 0 1 217 880)" fill="#7E8494" stroke="#7E8494" stroke-width="8" mask="url(#path-79-inside-20_1289_599)"/>
<mask id="path-80-inside-21_1289_599" fill="white">
<rect width="16" height="24" rx="2" transform="matrix(-1 0 0 1 157 880)"/>
</mask>
<rect width="16" height="24" rx="2" transform="matrix(-1 0 0 1 157 880)" fill="#7E8494" stroke="#7E8494" stroke-width="8" mask="url(#path-80-inside-21_1289_599)"/>
<mask id="path-81-inside-22_1289_599" fill="white">
<rect width="16" height="56" rx="2" transform="matrix(-1 0 0 1 157 916)"/>
</mask>
<rect width="16" height="56" rx="2" transform="matrix(-1 0 0 1 157 916)" fill="#7E8494" stroke="#7E8494" stroke-width="8" mask="url(#path-81-inside-22_1289_599)"/>
<path d="M20 428L12 432V428V424L20 428Z" fill="white"/>
<path d="M20 444L12 448V444V440L20 444Z" fill="#F4AD0B"/>
<path d="M20 460L12 464V460V456L20 460Z" fill="#F4AD0B"/>
<path d="M20 476L12 480V476V472L20 476Z" fill="#F4AD0B"/>
<path d="M20 492L12 496V492V488L20 492Z" fill="white"/>
<path d="M20 508L12 512V508V504L20 508Z" fill="white"/>
<path d="M20 524L12 528V524V520L20 524Z" fill="white"/>
<path d="M20 540L12 544V540V536L20 540Z" fill="#F4AD0B"/>
<path d="M20 556L12 560V556V552L20 556Z" fill="#F4AD0B"/>
<path d="M20 572L12 576V572V568L20 572Z" fill="#F4AD0B"/>
<path d="M20 588L12 592V588V584L20 588Z" fill="#F4AD0B"/>
<path d="M20 604L12 608V604V600L20 604Z" fill="#F4AD0B"/>
<path d="M20 620L12 624V620V616L20 620Z" fill="white"/>
<path d="M20 636L12 640V636V632L20 636Z" fill="white"/>
<path d="M20 652L12 656V652V648L20 652Z" fill="white"/>
<path d="M20 668L12 672V668V664L20 668Z" fill="white"/>
<path d="M20 684L12 688V684V680L20 684Z" fill="white"/>
<path d="M36 428L36 436L32.8 436L28 428L32.8 420L36 420L36 428Z" fill="white"/>
<path d="M36 444L36 452L32.8 452L28 444L32.8 436L36 436L36 444Z" fill="#F4AD0B"/>
<path d="M36 460L36 468L32.8 468L28 460L32.8 452L36 452L36 460Z" fill="#F4AD0B"/>
<path d="M36 476L36 484L32.8 484L28 476L32.8 468L36 468L36 476Z" fill="#F4AD0B"/>
<path d="M36 492L36 500L32.8 500L28 492L32.8 484L36 484L36 492Z" fill="white"/>
<path d="M36 508L36 516L32.8 516L28 508L32.8 500L36 500L36 508Z" fill="white"/>
<path d="M36 524L36 532L32.8 532L28 524L32.8 516L36 516L36 524Z" fill="white"/>
<path d="M36 540L36 548L32.8 548L28 540L32.8 532L36 532L36 540Z" fill="#F4AD0B"/>
<path d="M36 556L36 564L32.8 564L28 556L32.8 548L36 548L36 556Z" fill="#F4AD0B"/>
<path d="M36 572L36 580L32.8 580L28 572L32.8 564L36 564L36 572Z" fill="#F4AD0B"/>
<path d="M36 588L36 596L32.8 596L28 588L32.8 580L36 580L36 588Z" fill="#F4AD0B"/>
<path d="M36 604L36 612L32.8 612L28 604L32.8 596L36 596L36 604Z" fill="#F4AD0B"/>
<path d="M36 620L36 628L32.8 628L28 620L32.8 612L36 612L36 620Z" fill="white"/>
<path d="M36 636L36 644L32.8 644L28 636L32.8 628L36 628L36 636Z" fill="white"/>
<path d="M36 652L36 660L32.8 660L28 652L32.8 644L36 644L36 652Z" fill="white"/>
<path d="M36 668L36 676L32.8 676L28 668L32.8 660L36 660L36 668Z" fill="white"/>
<path d="M36 684L36 692L32.8 692L28 684L32.8 676L36 676L36 684Z" fill="white"/>
<defs>
<filter id="filter0_d_1289_599" x="0" y="0" width="1888" height="1048" filterUnits="userSpaceOnUse" color-interpolation-filters="sRGB">
<feFlood flood-opacity="0" result="BackgroundImageFix"/>
<feColorMatrix in="SourceAlpha" type="matrix" values="0 0 0 0 0 0 0 0 0 0 0 0 0 0 0 0 0 0 127 0" result="hardAlpha"/>
<feOffset/>
<feGaussianBlur stdDeviation="6"/>
<feComposite in2="hardAlpha" operator="out"/>
<feColorMatrix type="matrix" values="0 0 0 0 1 0 0 0 0 0.14902 0 0 0 0 0.0235294 0 0 0 1 0"/>
<feBlend mode="normal" in2="BackgroundImageFix" result="effect1_dropShadow_1289_599"/>
<feBlend mode="normal" in="SourceGraphic" in2="effect1_dropShadow_1289_599" result="shape"/>
</filter>
<filter id="filter1_f_1289_599" x="123.648" y="709.288" width="110.251" height="35.7236" filterUnits="userSpaceOnUse" color-interpolation-filters="sRGB">
<feFlood flood-opacity="0" result="BackgroundImageFix"/>
<feBlend mode="normal" in="SourceGraphic" in2="BackgroundImageFix" result="shape"/>
<feGaussianBlur stdDeviation="6" result="effect1_foregroundBlur_1289_599"/>
</filter>
<filter id="filter2_f_1289_599" x="24.3721" y="870.324" width="103.324" height="35.6758" filterUnits="userSpaceOnUse" color-interpolation-filters="sRGB">
<feFlood flood-opacity="0" result="BackgroundImageFix"/>
<feBlend mode="normal" in="SourceGraphic" in2="BackgroundImageFix" result="shape"/>
<feGaussianBlur stdDeviation="6" result="effect1_foregroundBlur_1289_599"/>
</filter>
<filter id="filter3_f_1289_599" x="24.144" y="893.336" width="101.937" height="35.6758" filterUnits="userSpaceOnUse" color-interpolation-filters="sRGB">
<feFlood flood-opacity="0" result="BackgroundImageFix"/>
<feBlend mode="normal" in="SourceGraphic" in2="BackgroundImageFix" result="shape"/>
<feGaussianBlur stdDeviation="6" result="effect1_foregroundBlur_1289_599"/>
</filter>
<filter id="filter4_f_1289_599" x="24.3" y="932.3" width="92.5886" height="35.7002" filterUnits="userSpaceOnUse" color-interpolation-filters="sRGB">
<feFlood flood-opacity="0" result="BackgroundImageFix"/>
<feBlend mode="normal" in="SourceGraphic" in2="BackgroundImageFix" result="shape"/>
<feGaussianBlur stdDeviation="6" result="effect1_foregroundBlur_1289_599"/>
</filter>
<filter id="filter5_f_1289_599" x="162.799" y="757.013" width="31.8052" height="32.1777" filterUnits="userSpaceOnUse" color-interpolation-filters="sRGB">
<feFlood flood-opacity="0" result="BackgroundImageFix"/>
<feBlend mode="normal" in="SourceGraphic" in2="BackgroundImageFix" result="shape"/>
<feGaussianBlur stdDeviation="1" result="effect1_foregroundBlur_1289_599"/>
</filter>
<filter id="filter6_f_1289_599" x="162.799" y="821.419" width="31.8052" height="32.1777" filterUnits="userSpaceOnUse" color-interpolation-filters="sRGB">
<feFlood flood-opacity="0" result="BackgroundImageFix"/>
<feBlend mode="normal" in="SourceGraphic" in2="BackgroundImageFix" result="shape"/>
<feGaussianBlur stdDeviation="1" result="effect1_foregroundBlur_1289_599"/>
</filter>
<filter id="filter7_f_1289_599" x="176.702" y="764.058" width="31.8052" height="32.1777" filterUnits="userSpaceOnUse" color-interpolation-filters="sRGB">
<feFlood flood-opacity="0" result="BackgroundImageFix"/>
<feBlend mode="normal" in="SourceGraphic" in2="BackgroundImageFix" result="shape"/>
<feGaussianBlur stdDeviation="1" result="effect1_foregroundBlur_1289_599"/>
</filter>
<filter id="filter8_f_1289_599" x="176.702" y="814.374" width="31.8052" height="32.1777" filterUnits="userSpaceOnUse" color-interpolation-filters="sRGB">
<feFlood flood-opacity="0" result="BackgroundImageFix"/>
<feBlend mode="normal" in="SourceGraphic" in2="BackgroundImageFix" result="shape"/>
<feGaussianBlur stdDeviation="1" result="effect1_foregroundBlur_1289_599"/>
</filter>
<filter id="filter9_f_1289_599" x="148.897" y="764.058" width="31.8052" height="32.1777" filterUnits="userSpaceOnUse" color-interpolation-filters="sRGB">
<feFlood flood-opacity="0" result="BackgroundImageFix"/>
<feBlend mode="normal" in="SourceGraphic" in2="BackgroundImageFix" result="shape"/>
<feGaussianBlur stdDeviation="1" result="effect1_foregroundBlur_1289_599"/>
</filter>
<filter id="filter10_f_1289_599" x="148.897" y="814.374" width="31.8052" height="32.1777" filterUnits="userSpaceOnUse" color-interpolation-filters="sRGB">
<feFlood flood-opacity="0" result="BackgroundImageFix"/>
<feBlend mode="normal" in="SourceGraphic" in2="BackgroundImageFix" result="shape"/>
<feGaussianBlur stdDeviation="1" result="effect1_foregroundBlur_1289_599"/>
</filter>
<filter id="filter11_f_1289_599" x="189.611" y="773.114" width="31.8052" height="32.1777" filterUnits="userSpaceOnUse" color-interpolation-filters="sRGB">
<feFlood flood-opacity="0" result="BackgroundImageFix"/>
<feBlend mode="normal" in="SourceGraphic" in2="BackgroundImageFix" result="shape"/>
<feGaussianBlur stdDeviation="1" result="effect1_foregroundBlur_1289_599"/>
</filter>
<filter id="filter12_f_1289_599" x="189.611" y="805.317" width="31.8052" height="32.1777" filterUnits="userSpaceOnUse" color-interpolation-filters="sRGB">
<feFlood flood-opacity="0" result="BackgroundImageFix"/>
<feBlend mode="normal" in="SourceGraphic" in2="BackgroundImageFix" result="shape"/>
<feGaussianBlur stdDeviation="1" result="effect1_foregroundBlur_1289_599"/>
</filter>
<filter id="filter13_f_1289_599" x="135.987" y="773.114" width="31.8052" height="32.1777" filterUnits="userSpaceOnUse" color-interpolation-filters="sRGB">
<feFlood flood-opacity="0" result="BackgroundImageFix"/>
<feBlend mode="normal" in="SourceGraphic" in2="BackgroundImageFix" result="shape"/>
<feGaussianBlur stdDeviation="1" result="effect1_foregroundBlur_1289_599"/>
</filter>
<filter id="filter14_f_1289_599" x="135.987" y="805.317" width="31.8052" height="32.1777" filterUnits="userSpaceOnUse" color-interpolation-filters="sRGB">
<feFlood flood-opacity="0" result="BackgroundImageFix"/>
<feBlend mode="normal" in="SourceGraphic" in2="BackgroundImageFix" result="shape"/>
<feGaussianBlur stdDeviation="1" result="effect1_foregroundBlur_1289_599"/>
</filter>
<filter id="filter15_f_1289_599" x="191.598" y="789.216" width="31.8052" height="32.1777" filterUnits="userSpaceOnUse" color-interpolation-filters="sRGB">
<feFlood flood-opacity="0" result="BackgroundImageFix"/>
<feBlend mode="normal" in="SourceGraphic" in2="BackgroundImageFix" result="shape"/>
<feGaussianBlur stdDeviation="1" result="effect1_foregroundBlur_1289_599"/>
</filter>
<filter id="filter16_f_1289_599" x="134.001" y="789.216" width="31.8052" height="32.1777" filterUnits="userSpaceOnUse" color-interpolation-filters="sRGB">
<feFlood flood-opacity="0" result="BackgroundImageFix"/>
<feBlend mode="normal" in="SourceGraphic" in2="BackgroundImageFix" result="shape"/>
<feGaussianBlur stdDeviation="1" result="effect1_foregroundBlur_1289_599"/>
</filter>
<filter id="filter17_f_1289_599" x="124" y="744" width="110" height="124" filterUnits="userSpaceOnUse" color-interpolation-filters="sRGB">
<feFlood flood-opacity="0" result="BackgroundImageFix"/>
<feBlend mode="normal" in="SourceGraphic" in2="BackgroundImageFix" result="shape"/>
<feGaussianBlur stdDeviation="6" result="effect1_foregroundBlur_1289_599"/>
</filter>
<filter id="filter18_f_1289_599" x="135.001" y="754.994" width="100.311" height="3.00586" filterUnits="userSpaceOnUse" color-interpolation-filters="sRGB">
<feFlood flood-opacity="0" result="BackgroundImageFix"/>
<feBlend mode="normal" in="SourceGraphic" in2="BackgroundImageFix" result="shape"/>
<feGaussianBlur stdDeviation="0.5" result="effect1_foregroundBlur_1289_599"/>
</filter>
<filter id="filter19_f_1289_599" x="135.001" y="854.622" width="100.311" height="3.00586" filterUnits="userSpaceOnUse" color-interpolation-filters="sRGB">
<feFlood flood-opacity="0" result="BackgroundImageFix"/>
<feBlend mode="normal" in="SourceGraphic" in2="BackgroundImageFix" result="shape"/>
<feGaussianBlur stdDeviation="0.5" result="effect1_foregroundBlur_1289_599"/>
</filter>
<filter id="filter20_f_1289_599" x="135.001" y="758.013" width="100.311" height="3.00586" filterUnits="userSpaceOnUse" color-interpolation-filters="sRGB">
<feFlood flood-opacity="0" result="BackgroundImageFix"/>
<feBlend mode="normal" in="SourceGraphic" in2="BackgroundImageFix" result="shape"/>
<feGaussianBlur stdDeviation="0.5" result="effect1_foregroundBlur_1289_599"/>
</filter>
<filter id="filter21_f_1289_599" x="135.001" y="761.031" width="100.311" height="3.00586" filterUnits="userSpaceOnUse" color-interpolation-filters="sRGB">
<feFlood flood-opacity="0" result="BackgroundImageFix"/>
<feBlend mode="normal" in="SourceGraphic" in2="BackgroundImageFix" result="shape"/>
<feGaussianBlur stdDeviation="0.5" result="effect1_foregroundBlur_1289_599"/>
</filter>
<filter id="filter22_f_1289_599" x="135.001" y="764.051" width="100.311" height="3.00586" filterUnits="userSpaceOnUse" color-interpolation-filters="sRGB">
<feFlood flood-opacity="0" result="BackgroundImageFix"/>
<feBlend mode="normal" in="SourceGraphic" in2="BackgroundImageFix" result="shape"/>
<feGaussianBlur stdDeviation="0.5" result="effect1_foregroundBlur_1289_599"/>
</filter>
<filter id="filter23_f_1289_599" x="135.001" y="767.07" width="100.311" height="3.00586" filterUnits="userSpaceOnUse" color-interpolation-filters="sRGB">
<feFlood flood-opacity="0" result="BackgroundImageFix"/>
<feBlend mode="normal" in="SourceGraphic" in2="BackgroundImageFix" result="shape"/>
<feGaussianBlur stdDeviation="0.5" result="effect1_foregroundBlur_1289_599"/>
</filter>
<filter id="filter24_f_1289_599" x="135.001" y="770.089" width="100.311" height="3.00586" filterUnits="userSpaceOnUse" color-interpolation-filters="sRGB">
<feFlood flood-opacity="0" result="BackgroundImageFix"/>
<feBlend mode="normal" in="SourceGraphic" in2="BackgroundImageFix" result="shape"/>
<feGaussianBlur stdDeviation="0.5" result="effect1_foregroundBlur_1289_599"/>
</filter>
<filter id="filter25_f_1289_599" x="135.001" y="773.108" width="100.311" height="3.00586" filterUnits="userSpaceOnUse" color-interpolation-filters="sRGB">
<feFlood flood-opacity="0" result="BackgroundImageFix"/>
<feBlend mode="normal" in="SourceGraphic" in2="BackgroundImageFix" result="shape"/>
<feGaussianBlur stdDeviation="0.5" result="effect1_foregroundBlur_1289_599"/>
</filter>
<filter id="filter26_f_1289_599" x="135.001" y="776.127" width="100.311" height="3.00586" filterUnits="userSpaceOnUse" color-interpolation-filters="sRGB">
<feFlood flood-opacity="0" result="BackgroundImageFix"/>
<feBlend mode="normal" in="SourceGraphic" in2="BackgroundImageFix" result="shape"/>
<feGaussianBlur stdDeviation="0.5" result="effect1_foregroundBlur_1289_599"/>
</filter>
<filter id="filter27_f_1289_599" x="135.001" y="779.146" width="100.311" height="3.00586" filterUnits="userSpaceOnUse" color-interpolation-filters="sRGB">
<feFlood flood-opacity="0" result="BackgroundImageFix"/>
<feBlend mode="normal" in="SourceGraphic" in2="BackgroundImageFix" result="shape"/>
<feGaussianBlur stdDeviation="0.5" result="effect1_foregroundBlur_1289_599"/>
</filter>
<filter id="filter28_f_1289_599" x="135.001" y="782.165" width="100.311" height="3.00586" filterUnits="userSpaceOnUse" color-interpolation-filters="sRGB">
<feFlood flood-opacity="0" result="BackgroundImageFix"/>
<feBlend mode="normal" in="SourceGraphic" in2="BackgroundImageFix" result="shape"/>
<feGaussianBlur stdDeviation="0.5" result="effect1_foregroundBlur_1289_599"/>
</filter>
<filter id="filter29_f_1289_599" x="135.001" y="785.185" width="100.311" height="3.00586" filterUnits="userSpaceOnUse" color-interpolation-filters="sRGB">
<feFlood flood-opacity="0" result="BackgroundImageFix"/>
<feBlend mode="normal" in="SourceGraphic" in2="BackgroundImageFix" result="shape"/>
<feGaussianBlur stdDeviation="0.5" result="effect1_foregroundBlur_1289_599"/>
</filter>
<filter id="filter30_f_1289_599" x="135.001" y="788.203" width="100.311" height="3.00586" filterUnits="userSpaceOnUse" color-interpolation-filters="sRGB">
<feFlood flood-opacity="0" result="BackgroundImageFix"/>
<feBlend mode="normal" in="SourceGraphic" in2="BackgroundImageFix" result="shape"/>
<feGaussianBlur stdDeviation="0.5" result="effect1_foregroundBlur_1289_599"/>
</filter>
<filter id="filter31_f_1289_599" x="135.001" y="791.223" width="100.311" height="3.00586" filterUnits="userSpaceOnUse" color-interpolation-filters="sRGB">
<feFlood flood-opacity="0" result="BackgroundImageFix"/>
<feBlend mode="normal" in="SourceGraphic" in2="BackgroundImageFix" result="shape"/>
<feGaussianBlur stdDeviation="0.5" result="effect1_foregroundBlur_1289_599"/>
</filter>
<filter id="filter32_f_1289_599" x="135.001" y="794.241" width="100.311" height="3.00586" filterUnits="userSpaceOnUse" color-interpolation-filters="sRGB">
<feFlood flood-opacity="0" result="BackgroundImageFix"/>
<feBlend mode="normal" in="SourceGraphic" in2="BackgroundImageFix" result="shape"/>
<feGaussianBlur stdDeviation="0.5" result="effect1_foregroundBlur_1289_599"/>
</filter>
<filter id="filter33_f_1289_599" x="135.001" y="797.261" width="100.311" height="3.00586" filterUnits="userSpaceOnUse" color-interpolation-filters="sRGB">
<feFlood flood-opacity="0" result="BackgroundImageFix"/>
<feBlend mode="normal" in="SourceGraphic" in2="BackgroundImageFix" result="shape"/>
<feGaussianBlur stdDeviation="0.5" result="effect1_foregroundBlur_1289_599"/>
</filter>
<filter id="filter34_f_1289_599" x="135.001" y="800.279" width="100.311" height="3.00586" filterUnits="userSpaceOnUse" color-interpolation-filters="sRGB">
<feFlood flood-opacity="0" result="BackgroundImageFix"/>
<feBlend mode="normal" in="SourceGraphic" in2="BackgroundImageFix" result="shape"/>
<feGaussianBlur stdDeviation="0.5" result="effect1_foregroundBlur_1289_599"/>
</filter>
<filter id="filter35_f_1289_599" x="135.001" y="803.299" width="100.311" height="3.00586" filterUnits="userSpaceOnUse" color-interpolation-filters="sRGB">
<feFlood flood-opacity="0" result="BackgroundImageFix"/>
<feBlend mode="normal" in="SourceGraphic" in2="BackgroundImageFix" result="shape"/>
<feGaussianBlur stdDeviation="0.5" result="effect1_foregroundBlur_1289_599"/>
</filter>
<filter id="filter36_f_1289_599" x="135.001" y="806.317" width="100.311" height="3.00586" filterUnits="userSpaceOnUse" color-interpolation-filters="sRGB">
<feFlood flood-opacity="0" result="BackgroundImageFix"/>
<feBlend mode="normal" in="SourceGraphic" in2="BackgroundImageFix" result="shape"/>
<feGaussianBlur stdDeviation="0.5" result="effect1_foregroundBlur_1289_599"/>
</filter>
<filter id="filter37_f_1289_599" x="135.001" y="809.337" width="100.311" height="3.00586" filterUnits="userSpaceOnUse" color-interpolation-filters="sRGB">
<feFlood flood-opacity="0" result="BackgroundImageFix"/>
<feBlend mode="normal" in="SourceGraphic" in2="BackgroundImageFix" result="shape"/>
<feGaussianBlur stdDeviation="0.5" result="effect1_foregroundBlur_1289_599"/>
</filter>
<filter id="filter38_f_1289_599" x="135.001" y="812.355" width="100.311" height="3.00586" filterUnits="userSpaceOnUse" color-interpolation-filters="sRGB">
<feFlood flood-opacity="0" result="BackgroundImageFix"/>
<feBlend mode="normal" in="SourceGraphic" in2="BackgroundImageFix" result="shape"/>
<feGaussianBlur stdDeviation="0.5" result="effect1_foregroundBlur_1289_599"/>
</filter>
<filter id="filter39_f_1289_599" x="135.001" y="815.375" width="100.311" height="3.00586" filterUnits="userSpaceOnUse" color-interpolation-filters="sRGB">
<feFlood flood-opacity="0" result="BackgroundImageFix"/>
<feBlend mode="normal" in="SourceGraphic" in2="BackgroundImageFix" result="shape"/>
<feGaussianBlur stdDeviation="0.5" result="effect1_foregroundBlur_1289_599"/>
</filter>
<filter id="filter40_f_1289_599" x="135.001" y="818.394" width="100.311" height="3.00586" filterUnits="userSpaceOnUse" color-interpolation-filters="sRGB">
<feFlood flood-opacity="0" result="BackgroundImageFix"/>
<feBlend mode="normal" in="SourceGraphic" in2="BackgroundImageFix" result="shape"/>
<feGaussianBlur stdDeviation="0.5" result="effect1_foregroundBlur_1289_599"/>
</filter>
<filter id="filter41_f_1289_599" x="135.001" y="821.413" width="100.311" height="3.00586" filterUnits="userSpaceOnUse" color-interpolation-filters="sRGB">
<feFlood flood-opacity="0" result="BackgroundImageFix"/>
<feBlend mode="normal" in="SourceGraphic" in2="BackgroundImageFix" result="shape"/>
<feGaussianBlur stdDeviation="0.5" result="effect1_foregroundBlur_1289_599"/>
</filter>
<filter id="filter42_f_1289_599" x="135.001" y="824.432" width="100.311" height="3.00586" filterUnits="userSpaceOnUse" color-interpolation-filters="sRGB">
<feFlood flood-opacity="0" result="BackgroundImageFix"/>
<feBlend mode="normal" in="SourceGraphic" in2="BackgroundImageFix" result="shape"/>
<feGaussianBlur stdDeviation="0.5" result="effect1_foregroundBlur_1289_599"/>
</filter>
<filter id="filter43_f_1289_599" x="135.001" y="827.451" width="100.311" height="3.00586" filterUnits="userSpaceOnUse" color-interpolation-filters="sRGB">
<feFlood flood-opacity="0" result="BackgroundImageFix"/>
<feBlend mode="normal" in="SourceGraphic" in2="BackgroundImageFix" result="shape"/>
<feGaussianBlur stdDeviation="0.5" result="effect1_foregroundBlur_1289_599"/>
</filter>
<filter id="filter44_f_1289_599" x="135.001" y="830.47" width="100.311" height="3.00586" filterUnits="userSpaceOnUse" color-interpolation-filters="sRGB">
<feFlood flood-opacity="0" result="BackgroundImageFix"/>
<feBlend mode="normal" in="SourceGraphic" in2="BackgroundImageFix" result="shape"/>
<feGaussianBlur stdDeviation="0.5" result="effect1_foregroundBlur_1289_599"/>
</filter>
<filter id="filter45_f_1289_599" x="135.001" y="833.489" width="100.311" height="3.00586" filterUnits="userSpaceOnUse" color-interpolation-filters="sRGB">
<feFlood flood-opacity="0" result="BackgroundImageFix"/>
<feBlend mode="normal" in="SourceGraphic" in2="BackgroundImageFix" result="shape"/>
<feGaussianBlur stdDeviation="0.5" result="effect1_foregroundBlur_1289_599"/>
</filter>
<filter id="filter46_f_1289_599" x="135.001" y="836.508" width="100.311" height="3.00586" filterUnits="userSpaceOnUse" color-interpolation-filters="sRGB">
<feFlood flood-opacity="0" result="BackgroundImageFix"/>
<feBlend mode="normal" in="SourceGraphic" in2="BackgroundImageFix" result="shape"/>
<feGaussianBlur stdDeviation="0.5" result="effect1_foregroundBlur_1289_599"/>
</filter>
<filter id="filter47_f_1289_599" x="135.001" y="839.527" width="100.311" height="3.00586" filterUnits="userSpaceOnUse" color-interpolation-filters="sRGB">
<feFlood flood-opacity="0" result="BackgroundImageFix"/>
<feBlend mode="normal" in="SourceGraphic" in2="BackgroundImageFix" result="shape"/>
<feGaussianBlur stdDeviation="0.5" result="effect1_foregroundBlur_1289_599"/>
</filter>
<filter id="filter48_f_1289_599" x="135.001" y="842.546" width="100.311" height="3.00586" filterUnits="userSpaceOnUse" color-interpolation-filters="sRGB">
<feFlood flood-opacity="0" result="BackgroundImageFix"/>
<feBlend mode="normal" in="SourceGraphic" in2="BackgroundImageFix" result="shape"/>
<feGaussianBlur stdDeviation="0.5" result="effect1_foregroundBlur_1289_599"/>
</filter>
<filter id="filter49_f_1289_599" x="135.001" y="845.565" width="100.311" height="3.00586" filterUnits="userSpaceOnUse" color-interpolation-filters="sRGB">
<feFlood flood-opacity="0" result="BackgroundImageFix"/>
<feBlend mode="normal" in="SourceGraphic" in2="BackgroundImageFix" result="shape"/>
<feGaussianBlur stdDeviation="0.5" result="effect1_foregroundBlur_1289_599"/>
</filter>
<filter id="filter50_f_1289_599" x="135.001" y="848.584" width="100.311" height="3.00586" filterUnits="userSpaceOnUse" color-interpolation-filters="sRGB">
<feFlood flood-opacity="0" result="BackgroundImageFix"/>
<feBlend mode="normal" in="SourceGraphic" in2="BackgroundImageFix" result="shape"/>
<feGaussianBlur stdDeviation="0.5" result="effect1_foregroundBlur_1289_599"/>
</filter>
<filter id="filter51_f_1289_599" x="135.001" y="851.604" width="100.311" height="3.00586" filterUnits="userSpaceOnUse" color-interpolation-filters="sRGB">
<feFlood flood-opacity="0" result="BackgroundImageFix"/>
<feBlend mode="normal" in="SourceGraphic" in2="BackgroundImageFix" result="shape"/>
<feGaussianBlur stdDeviation="0.5" result="effect1_foregroundBlur_1289_599"/>
</filter>
</defs>
</svg>
